<svg version="1.1" id="Layer_1" xmlns="http://www.w3.org/2000/svg" xmlns:xlink="http://www.w3.org/1999/xlink" x="0px" y="0px"
	 width="100%" viewBox="0 0 981 848" enable-background="new 0 0 981 848" xml:space="preserve">
<path fill="#E4C157" opacity="1.000000" stroke="none" 
	d="
M1.000002,737.000000 
	C1.000000,491.694672 1.000000,246.389343 1.000000,1.042005 
	C327.934662,1.042005 654.869324,1.042005 981.901978,1.042005 
	C981.901978,283.569031 981.901978,566.138123 981.901978,848.853638 
	C655.000061,848.853638 328.000031,848.853638 1.000000,848.853638 
	C1.000000,815.908508 1.000000,782.912170 1.356149,749.336304 
	C18.700926,778.273560 35.689552,807.790405 52.752289,837.436096 
	C55.192936,836.249207 57.237762,835.254883 59.310013,834.247192 
	C61.428608,840.654480 63.028740,841.705017 70.587929,841.705200 
	C349.033691,841.709900 627.479431,841.710693 905.925171,841.693604 
	C907.746643,841.693481 909.567932,841.434814 911.389709,841.302551 
	C914.389893,841.084656 917.390381,840.871460 920.390747,840.656250 
	C921.583923,840.505554 922.477539,839.124695 923.299255,837.702271 
	C938.957092,810.598022 954.605103,783.487976 970.261475,756.382812 
	C971.093628,754.942078 971.645325,753.011963 972.902405,752.203064 
	C977.333130,749.351685 978.167175,744.989136 978.562927,741.324402 
	C976.301453,738.468201 974.186829,736.365601 972.735107,733.876343 
	C958.057678,708.709045 943.485962,683.480103 928.889587,658.265564 
	C804.777832,443.869171 680.663574,229.474182 556.583679,15.059316 
	C554.260315,11.044426 552.053711,7.183133 546.550415,7.831556 
	C546.249878,6.280355 546.003906,5.010831 545.714600,3.517450 
	C543.730530,3.517450 541.911560,3.514989 540.092590,3.517816 
	C509.260986,3.565740 478.428467,3.506291 447.598694,3.769471 
	C442.481323,3.813156 437.485107,3.649714 432.067810,5.455945 
	C426.866974,7.189986 424.361786,9.807657 422.042542,13.814492 
	C331.302185,170.582581 240.569885,327.355347 149.826080,484.121490 
	C102.035049,566.683777 54.237946,649.242493 6.347754,731.747192 
	C5.138314,733.830811 2.807705,735.263672 1.000002,737.000000 
z"/>
<path fill="#0B0B07" opacity="1.000000" stroke="none" 
	d="
M1.000002,737.460632 
	C2.807705,735.263672 5.138314,733.830811 6.347754,731.747192 
	C54.237946,649.242493 102.035049,566.683777 149.826080,484.121490 
	C240.569885,327.355347 331.302185,170.582581 422.042542,13.814492 
	C424.361786,9.807657 426.866974,7.189986 432.067810,5.455945 
	C437.485107,3.649714 442.481323,3.813156 447.598694,3.769471 
	C478.428467,3.506291 509.260986,3.565740 540.092590,3.517816 
	C541.911560,3.514989 543.730530,3.517450 545.714600,3.517450 
	C546.003906,5.010831 546.249878,6.280355 546.550415,7.831556 
	C552.053711,7.183133 554.260315,11.044426 556.583679,15.059316 
	C680.663574,229.474182 804.777832,443.869171 928.889587,658.265564 
	C943.485962,683.480103 958.057678,708.709045 972.735107,733.876343 
	C974.186829,736.365601 976.301453,738.468201 978.562927,741.324402 
	C978.167175,744.989136 977.333130,749.351685 972.902405,752.203064 
	C971.645325,753.011963 971.093628,754.942078 970.261475,756.382812 
	C954.605103,783.487976 938.957092,810.598022 923.299255,837.702271 
	C922.477539,839.124695 921.583923,840.505554 920.390747,840.656250 
	C917.390381,840.871460 914.389893,841.084656 911.389709,841.302551 
	C909.567932,841.434814 907.746643,841.693481 905.925171,841.693604 
	C627.479431,841.710693 349.033691,841.709900 70.587929,841.705200 
	C63.028740,841.705017 61.428608,840.654480 59.310013,834.247192 
	C57.237762,835.254883 55.192936,836.249207 52.752289,837.436096 
	C35.689552,807.790405 18.700926,778.273560 1.356149,748.878296 
	C1.000000,745.307068 1.000000,741.614197 1.000002,737.460632 
M202.243652,421.861359 
	C140.274536,528.925232 78.317642,635.996216 16.271872,743.015625 
	C14.570491,745.950317 14.456311,748.082153 16.188766,751.073181 
	C30.375042,775.565002 44.373608,800.165588 58.436111,824.729126 
	C59.333637,826.296875 60.289322,827.831299 61.217937,829.381226 
	C61.309406,828.880432 61.400875,828.379639 61.492340,827.878845 
	C89.849586,826.729004 118.251160,827.537964 146.627579,827.388550 
	C175.125809,827.238403 203.625443,827.355774 232.124451,827.355835 
	C260.456787,827.355896 288.789154,827.355469 317.121490,827.355957 
	C345.620483,827.356384 374.119476,827.358154 402.618469,827.358643 
	C431.117462,827.359070 459.616486,827.358826 488.115479,827.358215 
	C516.614502,827.357666 545.113464,827.355164 573.612488,827.355469 
	C602.111511,827.355713 630.610474,827.359619 659.109497,827.359863 
	C687.441833,827.360107 715.774170,827.357666 744.106506,827.356873 
	C772.605530,827.356018 801.104492,827.355469 829.603516,827.355164 
	C858.002258,827.354858 886.401001,827.355103 915.667664,827.355103 
	C929.915344,802.637878 944.783997,776.625793 959.939697,750.781982 
	C962.252380,746.838440 962.248901,744.047363 959.949829,740.080750 
	C840.639893,534.236511 721.446167,328.324829 602.247192,122.416290 
	C581.576050,86.708214 560.935730,50.982319 540.107544,14.964317 
	C507.025208,14.964317 473.536041,14.930735 440.047760,15.088919 
	C438.728363,15.095150 436.929260,16.647762 436.172089,17.954176 
	C358.276886,152.354202 280.460510,286.799927 202.243652,421.861359 
z"/>
<path fill="#E4C157" opacity="1.000000" stroke="none" 
	d="
M202.441513,421.552124 
	C280.460510,286.799927 358.276886,152.354202 436.172089,17.954176 
	C436.929260,16.647762 438.728363,15.095150 440.047760,15.088919 
	C473.536041,14.930735 507.025208,14.964317 540.107544,14.964317 
	C560.935730,50.982319 581.576050,86.708214 602.247192,122.416290 
	C721.446167,328.324829 840.639893,534.236511 959.949829,740.080750 
	C962.248901,744.047363 962.252380,746.838440 959.939697,750.781982 
	C944.783997,776.625793 929.915344,802.637878 915.667664,827.355103 
	C886.401001,827.355103 858.002258,827.354858 829.603516,827.355164 
	C801.104492,827.355469 772.605530,827.356018 744.106506,827.356873 
	C715.774170,827.357666 687.441833,827.360107 659.109497,827.359863 
	C630.610474,827.359619 602.111511,827.355713 573.612488,827.355469 
	C545.113464,827.355164 516.614502,827.357666 488.115479,827.358215 
	C459.616486,827.358826 431.117462,827.359070 402.618469,827.358643 
	C374.119476,827.358154 345.620483,827.356384 317.121490,827.355957 
	C288.789154,827.355469 260.456787,827.355896 232.124451,827.355835 
	C203.625443,827.355774 175.125809,827.238403 146.627579,827.388550 
	C118.251160,827.537964 89.849586,826.729004 61.492340,827.878845 
	C61.400875,828.379639 61.309406,828.880432 61.217937,829.381226 
	C60.289322,827.831299 59.333637,826.296875 58.436111,824.729126 
	C44.373608,800.165588 30.375042,775.565002 16.188766,751.073181 
	C14.456311,748.082153 14.570491,745.950317 16.271872,743.015625 
	C78.317642,635.996216 140.274536,528.925232 202.441513,421.552124 
z"/>
</svg>